<?xml version="1.0" standalone="no"?>
<!DOCTYPE svg PUBLIC "-//W3C//DTD SVG 20010904//EN"
 "http://www.w3.org/TR/2001/REC-SVG-20010904/DTD/svg10.dtd">
<svg version="1.0" xmlns="http://www.w3.org/2000/svg"
 width="500.000000pt" height="500.000000pt" viewBox="0 0 500.000000 500.000000"
 preserveAspectRatio="xMidYMid meet">
<metadata>
Created by potrace 1.11, written by Peter Selinger 2001-2013
</metadata>
<g transform="translate(0.000000,500.000000) scale(0.100000,-0.100000)"
fill="#000000" stroke="none">
<path d="M1372 3818 c3 -31 6 -32 78 -50 41 -11 92 -23 113 -29 l37 -10 0
-1229 0 -1229 -37 -10 c-21 -6 -72 -18 -113 -29 -72 -18 -75 -19 -78 -50 l-3
-32 546 0 546 0 -3 32 c-3 31 -6 32 -78 50 -41 11 -92 23 -112 29 l-38 10 0
459 0 460 153 0 c393 0 660 45 867 147 173 85 303 245 356 438 25 92 30 332 9
437 -46 231 -168 388 -380 493 -247 122 -447 145 -1308 145 l-558 0 3 -32z
m1169 -78 c90 -17 189 -72 255 -143 75 -80 118 -162 151 -284 23 -88 26 -117
27 -283 1 -196 -6 -249 -51 -381 -51 -151 -165 -277 -300 -330 -50 -20 -81
-23 -225 -27 l-168 -4 0 731 0 731 129 0 c70 0 153 -4 182 -10z"/>
</g>
</svg>
